# xmcd
#
# Track frame offsets: 
#        150
#        21625
#        41185
#        63097
#        87520
#        120272
#        143015
#        166455
#        188760
#        209502
#
# Disc length: 3077 seconds
#
# Revision: 2
# Processed by: cddbd v1.5.2PL0 Copyright (c) Steve Scherf et al.
# Submitted via: ExactAudioCopy v0.95b4
#
DISCID=8c0c030a
DTITLE=Various Artist - Smooth Jazz- Pure Pleasure
DYEAR=1999
DGENRE=Smooth Jazz
TTITLE0=Will Downing - Lover's Paradise
TTITLE1=Walter Beasley - I Feel You 
TTITLE2=Kim Waters - Easy Going
TTITLE3=Chuck Loeb - Just Us
TTITLE4=Jon Lucien - Dindi
TTITLE5=Bob Baldwin - Give In To Love
TTITLE6=Nelson Rangell - I Will, I Do
TTITLE7=Special EFX - Miami
TTITLE8=Angela Bofill - All She Wants Is Love
TTITLE9=Fattburger - Show Me The Honey
EXTD=YEAR: 1999
EXTT0=
EXTT1=
EXTT2=
EXTT3=
EXTT4=
EXTT5=
EXTT6=
EXTT7=
EXTT8=
EXTT9=
PLAYORDER=
